<svg width="1920" height="1070" viewBox="0 0 1920 1070" fill="none" xmlns="http://www.w3.org/2000/svg">
<g clip-path="url(#clip0_499_4378)">
<path fill-rule="evenodd" clip-rule="evenodd" d="M1873.7 893.637C1885.44 872.685 1895.02 849.643 1904.42 829.088C1909.42 837.367 1923.74 927.96 1943.53 1070H1900.72C1887.75 965.732 1878.11 901.073 1873.7 893.637Z" fill="#141414"/>
<path fill-rule="evenodd" clip-rule="evenodd" d="M1910.37 833.539C1919.86 814.089 1928.68 795.565 1937.6 781.494C1942.46 789.04 1959.79 900.078 1983.62 1070H1944.92C1927.6 930.523 1915.02 841.524 1910.37 833.539Z" fill="#141414"/>
<path fill-rule="evenodd" clip-rule="evenodd" d="M1544.13 1070C1566.9 1046.26 1588.53 1024.17 1609.06 1001.62C1621.7 1023.91 1634.91 1046.9 1648.09 1070H1544.13Z" fill="#141414"/>
<path fill-rule="evenodd" clip-rule="evenodd" d="M1620.78 990.233C1644.28 963.725 1666.08 941.754 1686.6 921.46C1709.77 955.741 1731.25 989.019 1753.92 1025.91C1743.78 1039.23 1733.44 1054.18 1722.61 1070.01H1667.24C1651.64 1042.63 1636.16 1016.17 1620.78 990.233Z" fill="#141414"/>
<path fill-rule="evenodd" clip-rule="evenodd" d="M1696.21 910.592C1716.53 891.116 1734.43 872.601 1751.81 854.786C1772.13 884.017 1792.98 915.195 1813.3 945.952C1797.79 967.241 1780.66 989.01 1763.04 1013.06C1740.65 978.302 1719.2 944.603 1696.21 910.592Z" fill="#141414"/>
<path fill-rule="evenodd" clip-rule="evenodd" d="M1760.23 846.591C1776.26 831.524 1791.63 816.23 1806.01 802.024C1824.03 827.629 1842.71 852.501 1861.64 879.034C1848.46 896.495 1835.02 914.925 1820.69 935.658C1800.52 905.803 1780.12 875.004 1760.22 846.591H1760.23Z" fill="#141414"/>
<path fill-rule="evenodd" clip-rule="evenodd" d="M1855.95 749.759C1866.98 738.031 1877.84 727.568 1888.33 717.451C1903.2 736.345 1919.44 757.128 1934.26 777.219C1925.86 789.343 1916.11 802.294 1906.39 817.048C1889.5 793.323 1873.02 772.633 1855.95 749.759Z" fill="#141414"/>
<path fill-rule="evenodd" clip-rule="evenodd" d="M1894.42 713.977C1903.8 704.13 1913.28 695.192 1921.52 685.21C1934.82 702.047 1948.77 719.398 1961.72 736.235C1954.66 747.609 1946.78 759.008 1938.55 771.157C1924.17 752.238 1908.84 732.5 1894.42 713.977Z" fill="#141414"/>
<path fill-rule="evenodd" clip-rule="evenodd" d="M1310.1 1030.73C1349.87 1001.99 1384.31 974.762 1420.25 949.738C1441.68 988.774 1463.95 1027.36 1486.45 1070.01H1329.68C1323.21 1056.77 1316.69 1043.68 1310.1 1030.73Z" fill="#141414"/>
<path fill-rule="evenodd" clip-rule="evenodd" d="M1436.35 938.651C1467.96 914.732 1497.53 891.824 1524.89 870.831C1547.84 907.498 1570.56 944.03 1593.19 982.822C1566.63 1009.22 1539.44 1038.61 1508.37 1067.15C1484.55 1022.2 1459.78 980.25 1436.35 938.651Z" fill="#141414"/>
<path fill-rule="evenodd" clip-rule="evenodd" d="M1537.98 861.042C1564.2 844.753 1587.4 826.786 1609.96 810.059C1630.77 839.972 1652.27 871.336 1673.06 904.058C1651.89 925.346 1630.19 947.074 1605.86 971.996C1582.67 932.96 1561.01 896.183 1537.98 861.042Z" fill="#141414"/>
<path fill-rule="evenodd" clip-rule="evenodd" d="M1620.23 801.164C1641.96 786.139 1661.77 770.913 1680.86 758.123C1699.96 783.728 1720.28 812.757 1739.69 842.367C1721.92 859.12 1702.98 875.468 1682.55 894.235C1662.55 862.973 1641.19 831.904 1620.23 801.164Z" fill="#141414"/>
<path fill-rule="evenodd" clip-rule="evenodd" d="M1689.95 751.883C1708.13 740.307 1724.56 727.981 1740.85 717.914C1758.96 740.771 1776.33 764.539 1794.83 790.077C1780.28 803.685 1764.28 817.562 1748.21 832.983C1729.01 805.944 1709.1 777.303 1689.95 751.883Z" fill="#141414"/>
<path fill-rule="evenodd" clip-rule="evenodd" d="M1906.6 362.111C1910.82 361.647 1914.65 361.158 1918.06 360.45C1925.05 367.844 1931.47 374.741 1938.33 381.755C1934.91 382.261 1931.69 383.458 1928.05 384.369C1920.99 377.219 1914.18 369.783 1906.6 362.111Z" fill="#141414"/>
<path fill-rule="evenodd" clip-rule="evenodd" d="M1797.81 676.669C1810.67 668.415 1822.32 659.672 1834.29 651.645C1849.12 670.565 1864.39 689.577 1879.38 708.91C1868.7 718.142 1857.62 728.36 1845.69 738.63C1829.91 717.788 1814.08 697.401 1797.81 676.669Z" fill="#141414"/>
<path fill-rule="evenodd" clip-rule="evenodd" d="M1840.97 649.074C1851.64 641.039 1862.4 633.805 1872.64 626.411C1885.37 642.169 1898.69 658.651 1911.48 675.295C1902.78 684.611 1893.53 693.438 1883.91 703.042C1869.79 685.513 1855.4 667.26 1840.97 649.074Z" fill="#141414"/>
<path fill-rule="evenodd" clip-rule="evenodd" d="M1879.01 622.035C1888.62 615.771 1896.36 608.444 1904.9 602.475C1917.04 617.01 1929.29 631.394 1940.77 645.735C1933.77 653.593 1926.01 661.265 1917.69 669.874C1904.46 652.573 1891.55 637.009 1879.02 622.035H1879.01Z" fill="#141414"/>
<path fill-rule="evenodd" clip-rule="evenodd" d="M1909.73 598.487C1917.74 592.467 1925.01 586.363 1932.66 581.65C1943.26 593.976 1954.4 606.809 1965.67 621.234C1959.57 628.03 1953.19 634.665 1946.06 642.388C1934.35 628.156 1921.87 612.693 1909.73 598.487Z" fill="#141414"/>
<path fill-rule="evenodd" clip-rule="evenodd" d="M652.626 626.681C717.47 612.027 777.056 597.585 833.176 583.842C854.804 621.285 876.882 657.041 897.555 695.411C843.117 711.675 783.058 732.635 716.554 753.983C694.918 709.795 673.946 667.993 652.618 626.681H652.626Z" fill="#141414"/>
<path fill-rule="evenodd" clip-rule="evenodd" d="M1026.59 584.398C1071.86 573.623 1111.69 563 1151.33 554.965C1170.77 583.226 1191.94 612.499 1213.05 643.189C1174.37 655.802 1133.77 669.342 1090.15 684.325C1069.82 650.667 1047.7 616.1 1026.59 584.39V584.398Z" fill="#141414"/>
<path fill-rule="evenodd" clip-rule="evenodd" d="M1079.85 364.438C1115.91 362.886 1149.64 360.542 1182.19 358.688C1200.5 380.153 1218.42 401.088 1235.65 422.84C1204.08 425.918 1170.56 429.83 1134.89 435.428C1117.09 410.91 1099.32 387.168 1079.85 364.438Z" fill="#141414"/>
<path fill-rule="evenodd" clip-rule="evenodd" d="M888.285 1070C934.502 1043.69 977.75 1018.8 1018.48 994.81C1030.12 1019.37 1041.78 1044.42 1053.31 1070H888.293H888.285Z" fill="#141414"/>
<path fill-rule="evenodd" clip-rule="evenodd" d="M1046.15 979.407C1099.21 949.114 1145.97 919.908 1191.71 893.772C1215.71 938.339 1240.29 986.27 1264.75 1034.11C1249.78 1046 1234.54 1057.92 1218.91 1070H1087.34C1073.4 1039.04 1059.7 1008.95 1046.15 979.407Z" fill="#141414"/>
<path fill-rule="evenodd" clip-rule="evenodd" d="M1212.87 882.044C1254.29 860.224 1292.52 839.955 1327.65 819.864C1350.28 856.75 1374.38 896.343 1396.15 937.192C1361.94 962.637 1325.13 988.749 1284.67 1016.88C1261.28 969.762 1236.88 925.996 1212.87 882.044Z" fill="#141414"/>
<path fill-rule="evenodd" clip-rule="evenodd" d="M1346.87 814.266C1381.09 795.481 1412.27 779.057 1441.84 763.367C1462.22 794.461 1483.72 826.634 1505.33 859.356C1476.94 880.113 1445.86 902.995 1413.13 927.066C1390.68 886.462 1369.02 850.545 1346.87 814.257V814.266Z" fill="#141414"/>
<path fill-rule="evenodd" clip-rule="evenodd" d="M1460.07 751.926C1487.39 738.402 1513.19 725.216 1537.62 712.097C1557.11 738.916 1576.7 767.22 1596.3 796.299C1573.18 813.49 1548.97 829.914 1522.55 846.313C1502.08 815.219 1480.91 783.399 1460.07 751.934V751.926Z" fill="#141414"/>
<path fill-rule="evenodd" clip-rule="evenodd" d="M1551.74 704.416C1573.95 690.943 1595.21 681.003 1616.3 671.155C1634.65 696.229 1653.48 721.852 1672.83 747.744C1652.89 759.758 1632.03 773.703 1611.01 789.191C1591.54 760.534 1571.2 731.809 1551.74 704.416Z" fill="#141414"/>
<path fill-rule="evenodd" clip-rule="evenodd" d="M1625.53 668.398C1644.27 658.66 1662.77 649.504 1680.78 641.401C1696.73 663.002 1713.6 684.527 1730.26 706.06C1713.9 716.928 1696.59 728.63 1679.03 741.176C1660.96 716.523 1642.72 691.854 1625.54 668.398H1625.53Z" fill="#141414"/>
<path fill-rule="evenodd" clip-rule="evenodd" d="M1744.57 609.152C1759.45 603.352 1772.45 596.851 1785.36 590.452C1799.25 607.247 1813.69 624.885 1827 641.503C1815.27 649.622 1803.87 658.365 1789.87 666.063C1775.2 647.118 1760.04 627.979 1744.57 609.144V609.152Z" fill="#141414"/>
<path fill-rule="evenodd" clip-rule="evenodd" d="M1792.22 587.451C1804.76 581.077 1816.08 574.728 1827.22 570.032C1840.16 585.098 1852.13 599.768 1865.51 616.058C1855.31 623.182 1844.81 630.062 1833.95 637.945C1819.73 620.838 1806.37 604.001 1792.22 587.451Z" fill="#141414"/>
<path fill-rule="evenodd" clip-rule="evenodd" d="M1832.78 567.688C1842.94 562.553 1852.16 557.225 1861.73 552.773C1873.88 566.735 1885.96 580.436 1896.77 594.263C1888.88 600.502 1879.6 606.479 1870.46 612.896C1857.48 597.475 1845.05 582.535 1832.78 567.688H1832.78Z" fill="#141414"/>
<path fill-rule="evenodd" clip-rule="evenodd" d="M1868.7 550.825C1877.97 546.357 1886.29 542.15 1894.34 537.327C1903.98 548.498 1915.41 561.626 1925.19 573.64C1918.21 579.061 1910.29 584.457 1902.27 590.57C1891.44 577.071 1879.8 563.775 1868.7 550.825Z" fill="#141414"/>
<path fill-rule="evenodd" clip-rule="evenodd" d="M1898.8 534.891C1906.54 531.198 1914.25 527.547 1921.04 523.829C1930.49 534.587 1939.57 545.227 1948.96 555.741C1943.01 560.563 1936.15 565.015 1929.67 570.968C1919.45 558.574 1909.52 546.736 1898.8 534.899V534.891Z" fill="#141414"/>
<path fill-rule="evenodd" clip-rule="evenodd" d="M1255.95 465.873C1286.13 461.421 1314.89 457.619 1342.81 452.931C1360.22 475.35 1377.76 496.967 1396.22 519.47C1369.61 525.49 1341.3 531.172 1311.13 539.165C1292.61 514.091 1274.04 489.952 1255.95 465.873H1255.95Z" fill="#141414"/>
<path fill-rule="evenodd" clip-rule="evenodd" d="M1816.01 350.45C1824.22 350.518 1832.01 350.535 1839.37 350.67C1847.99 359.944 1856.88 368.99 1865.2 377.995C1858.01 377.86 1851.78 379.15 1843.92 379.454C1834.84 369.716 1825.61 360.003 1816 350.442L1816.01 350.45Z" fill="#141414"/>
<path fill-rule="evenodd" clip-rule="evenodd" d="M1817.31 321.641C1824.75 322.61 1831.81 323.344 1838.65 323.943C1847.02 332.374 1855.02 340.476 1862.85 348.435C1856.56 348.477 1850.06 348.393 1843.36 348.106C1834.95 339.523 1826.02 330.468 1817.31 321.641Z" fill="#141414"/>
<path fill-rule="evenodd" clip-rule="evenodd" d="M387.095 1070C409.102 1060.04 430.604 1050.24 451.576 1040.55C455.098 1050.22 458.557 1060.04 461.968 1070H387.087H387.095Z" fill="#141414"/>
<path fill-rule="evenodd" clip-rule="evenodd" d="M1272.15 254.301C1298.18 255.76 1322.89 257.041 1346.43 258.239C1360.95 273.685 1375.31 289.35 1390.12 304.307C1366.58 304.458 1343.01 304.104 1317.67 303.733C1302.96 287.006 1287.4 270.649 1272.16 254.301H1272.15Z" fill="#141414"/>
<path fill-rule="evenodd" clip-rule="evenodd" d="M766.776 898.282C833.011 869.228 893.749 843.539 951.551 819.788C974.071 864.44 998.179 912.421 1020.16 963.826C963.419 995.645 903.983 1027.95 837.535 1062.52C815.07 1006.66 790.805 951.323 766.784 898.282H766.776Z" fill="#141414"/>
<path fill-rule="evenodd" clip-rule="evenodd" d="M1141.78 739.979C1183.69 723.268 1223.58 708.404 1260.57 693.776C1282.11 726.834 1304.06 761.883 1325.41 797.319C1290.06 816.728 1251.12 836.44 1211.33 856.379C1188.15 817.343 1165.01 777.16 1141.79 739.987L1141.78 739.979Z" fill="#141414"/>
<path fill-rule="evenodd" clip-rule="evenodd" d="M1396.09 646.241C1425.05 635.727 1451.47 626.124 1476.63 616.234C1494.87 640.331 1513.95 666.509 1532.26 693.422C1508.31 705.832 1482.08 719.002 1455.61 732.61C1436.47 702.713 1415.85 673.415 1396.08 646.241H1396.09Z" fill="#141414"/>
<path fill-rule="evenodd" clip-rule="evenodd" d="M1491 611.454C1514.98 602.82 1537.44 595.19 1558.98 588.218C1577.01 611.058 1594.52 634.243 1612.55 657.303C1592.07 666.686 1571.2 676.112 1548.63 687.84C1529.07 660.911 1510.33 634.977 1491 611.454Z" fill="#141414"/>
<path fill-rule="evenodd" clip-rule="evenodd" d="M1568.26 585.68C1588.22 578.775 1607.59 571.979 1626.59 565.074C1642.43 585.208 1658.27 604.996 1674.45 625.526C1656.95 633.932 1638.46 643.366 1619.65 652.455C1602.04 629.682 1584.66 607.18 1568.26 585.672L1568.26 585.68Z" fill="#141414"/>
<path fill-rule="evenodd" clip-rule="evenodd" d="M1639.15 560.985C1656.18 555.479 1672.87 550.185 1688.11 544.915C1704.03 563.944 1719.14 581.65 1734.05 600.679C1719.76 606.724 1704.37 613.578 1687.53 622.212C1671.64 600.552 1654.9 580.259 1639.15 560.985Z" fill="#141414"/>
<path fill-rule="evenodd" clip-rule="evenodd" d="M1695.58 543.212C1711.06 538.634 1724.93 533.39 1738.88 529.09C1752.54 544.915 1766.47 561.929 1779.45 578.412C1766.86 584.322 1753.91 590.89 1738.87 596.362C1724.91 579.255 1710.09 560.732 1695.58 543.212H1695.58Z" fill="#141414"/>
<path fill-rule="evenodd" clip-rule="evenodd" d="M1746.3 526.527C1759.65 522.674 1772.21 519.335 1784.07 515.617C1796.59 530.262 1809.47 544.67 1821.35 559.012C1810.49 563.438 1798.59 568.657 1786.78 574.922C1773.57 558.321 1759.97 542.529 1746.3 526.527Z" fill="#141414"/>
<path fill-rule="evenodd" clip-rule="evenodd" d="M1789.54 513.779C1800.84 510.44 1811.66 506.899 1822.01 503.021C1833.58 516.384 1845.26 529.705 1856.17 542.698C1847.05 547.385 1836.99 552.039 1826.66 556.398C1814.31 542.369 1802.09 527.943 1789.53 513.779H1789.54Z" fill="#141414"/>
<path fill-rule="evenodd" clip-rule="evenodd" d="M1829.11 501.68C1839.12 498.426 1848.02 494.758 1856.61 491.858C1867.24 503.299 1877.71 515.027 1888.07 526.4C1880.45 531.468 1871.71 536.046 1862.26 540.143C1851.12 527.041 1840.29 514.411 1829.1 501.68H1829.11Z" fill="#141414"/>
<path fill-rule="evenodd" clip-rule="evenodd" d="M1862.92 491.301C1871.25 488.224 1879.52 485.636 1887.54 483.266C1896.32 493.114 1906 503.872 1914.9 514.335C1907.69 517.522 1900.65 521.148 1892.93 524.689C1883.22 513.753 1873.14 502.759 1862.92 491.293V491.301Z" fill="#141414"/>
<path fill-rule="evenodd" clip-rule="evenodd" d="M1889.73 481.471C1896.66 478.436 1903.53 475.628 1910.59 473.132C1918.97 482.449 1928.03 492.87 1936.3 502.279C1930.07 505.643 1924.02 509.226 1917.5 512.683C1908.39 502.329 1898.91 492.145 1889.72 481.479L1889.73 481.471Z" fill="#141414"/>
<path fill-rule="evenodd" clip-rule="evenodd" d="M1913.8 471.033C1920.17 468.487 1925.89 466.235 1931.8 464.305C1939.98 472.997 1948.01 481.496 1955.87 490.551C1950.6 493.274 1945.5 496.571 1940.17 500.179C1931.46 490.601 1922.82 480.686 1913.81 471.033H1913.8Z" fill="#141414"/>
<path fill-rule="evenodd" clip-rule="evenodd" d="M1449.9 441.136C1472.52 438.657 1494.29 436.777 1515.17 434.323C1530.61 452.155 1546.35 470.417 1562.06 488.426C1541.91 492.052 1521.8 496.394 1499.22 501.301C1482.75 480.855 1466.45 460.519 1449.9 441.136Z" fill="#141414"/>
<path fill-rule="evenodd" clip-rule="evenodd" d="M1524.65 432.705C1544.34 430.049 1563.57 428.253 1580.85 425.783C1595.98 442.443 1610.94 459.482 1624.99 476.167C1607.89 479.725 1590.24 483.317 1571.18 486.588C1556.05 469.11 1540.1 450.478 1524.65 432.705Z" fill="#141414"/>
<path fill-rule="evenodd" clip-rule="evenodd" d="M1589.43 424.763C1607.38 422.908 1623.48 421.264 1639.1 419.653C1652.63 434.391 1666.82 450.191 1680.32 465.325C1665.3 468.36 1649.77 471.429 1633.42 475.147C1619.19 457.931 1604.18 440.934 1589.43 424.763Z" fill="#141414"/>
<path fill-rule="evenodd" clip-rule="evenodd" d="M1646.47 418.743C1661.76 417.174 1676.27 416.222 1690.13 414.847C1702.82 428.59 1716.31 443.792 1728.56 457.315C1715.36 459.701 1701.53 461.472 1687.36 463.866C1674.41 449.373 1659.99 433.573 1646.46 418.743H1646.47Z" fill="#141414"/>
<path fill-rule="evenodd" clip-rule="evenodd" d="M1696.91 414.316C1710.29 412.723 1722.79 410.775 1735.33 410.244C1747.12 422.832 1759.2 435.934 1771.11 449.474C1759.87 451.557 1747.9 453.943 1734.99 456.514C1722.57 442.283 1709.4 428.034 1696.91 414.316Z" fill="#141414"/>
<path fill-rule="evenodd" clip-rule="evenodd" d="M1741.15 410.025C1752.83 408.828 1763.61 407.723 1774.55 406.948C1786.05 418.878 1797.61 431.153 1807.61 442.552C1798.02 444.61 1787.76 446.734 1776.42 448.26C1764.88 435.049 1753.4 422.57 1741.15 410.025H1741.15Z" fill="#141414"/>
<path fill-rule="evenodd" clip-rule="evenodd" d="M1779.47 406.551C1789.95 405.405 1800.16 404.671 1809.3 403.609C1819.87 414.654 1830.28 426.044 1840.57 437.047C1831.95 439.214 1822.08 440.318 1812.8 441.785C1801.95 430.26 1791.2 418.481 1779.47 406.56V406.551Z" fill="#141414"/>
<path fill-rule="evenodd" clip-rule="evenodd" d="M1814.57 403.786C1823.86 402.901 1832.52 402.015 1840.72 401.198C1849.71 411.18 1859.17 421.222 1868.71 431.002C1860.87 432.418 1852.56 434.568 1844.64 436.465C1834.76 425.446 1824.93 414.982 1814.57 403.786Z" fill="#141414"/>
<path fill-rule="evenodd" clip-rule="evenodd" d="M1845.75 400.616C1853.69 400.017 1860.79 399.022 1868.06 398.643C1876.73 407.47 1885.43 416.652 1894.17 425.968C1887.46 427.3 1881.14 428.911 1873.99 430.175C1864.65 420.37 1854.96 410.345 1845.75 400.607V400.616Z" fill="#141414"/>
<path fill-rule="evenodd" clip-rule="evenodd" d="M1872.23 397.85C1879.07 396.965 1885.07 396.172 1891.45 395.574C1899.74 404.249 1908.07 412.655 1916.23 421.685C1910.63 423.144 1904.59 424.206 1898.33 425.909C1889.79 416.525 1880.88 407.074 1872.23 397.85H1872.23Z" fill="#141414"/>
<path fill-rule="evenodd" clip-rule="evenodd" d="M1894.14 395.414C1899.9 394.393 1904.83 393.087 1909.95 392.05C1917.43 400.084 1925.16 408.229 1932.11 415.775C1927.6 417.217 1922.45 418.608 1917.69 420.311C1909.94 411.989 1901.81 403.541 1894.14 395.414Z" fill="#141414"/>
<path fill-rule="evenodd" clip-rule="evenodd" d="M1913.21 391.341C1917.69 390.389 1922.57 390.102 1926.63 388.93C1933.72 396.434 1940.86 403.87 1947.41 411.037C1943.75 412.36 1940.08 413.802 1935.78 415.042C1928.63 407.521 1920.89 399.73 1913.2 391.341H1913.21Z" fill="#141414"/>
<path fill-rule="evenodd" clip-rule="evenodd" d="M1872.27 352.153C1860.99 349.59 1849.91 347.019 1837.19 344.321C1834.2 342.685 1831.38 341.935 1827.78 340.493C1841.28 344.034 1853.57 346.842 1865.44 349.852C1868.22 351.867 1870.08 350.939 1872.27 352.153Z" fill="#141414"/>
<path fill-rule="evenodd" clip-rule="evenodd" d="M1795.5 338.638C1779.53 337.154 1763.37 337.196 1745.79 336.336C1742.49 336.008 1738.76 335.713 1734.91 334.456C1753.28 336.336 1770.1 335.915 1786.34 336.96C1790.16 338.486 1793.07 337.938 1795.5 338.647V338.638Z" fill="#141414"/>
<path fill-rule="evenodd" clip-rule="evenodd" d="M1475.45 374.26C1495.81 372.869 1516.02 372.093 1534.27 370.828C1548.89 386.536 1563.34 402.513 1577.45 418.776C1559.4 420.724 1540.18 422.604 1521.03 424.99C1505.93 407.487 1490.31 390.119 1475.46 374.251L1475.45 374.26Z" fill="#141414"/>
<path fill-rule="evenodd" clip-rule="evenodd" d="M1543.15 370.28C1561.37 369.968 1578.67 369.572 1594.91 368.822C1608.09 383.34 1622.59 398.542 1635.36 413.035C1619.99 414.654 1603.3 415.91 1586.06 417.419C1572.1 401.594 1557.39 385.6 1543.15 370.289V370.28Z" fill="#141414"/>
<path fill-rule="evenodd" clip-rule="evenodd" d="M1602.74 368.754C1618.83 368.333 1633.95 368.358 1648.87 367.979C1661.54 380.921 1674.17 394.689 1686.44 408.87C1672.43 409.688 1657.94 410.775 1642.84 412.672C1630.27 398.247 1615.97 382.978 1602.73 368.746L1602.74 368.754Z" fill="#141414"/>
<path fill-rule="evenodd" clip-rule="evenodd" d="M1655.82 367.515C1670.02 367.203 1683.27 367.473 1696.12 367.026C1708.27 379.529 1720.09 391.991 1731.58 404.359C1719.48 404.932 1706.81 406.568 1693.25 408.145C1680.88 394.604 1668.26 380.617 1655.82 367.515Z" fill="#141414"/>
<path fill-rule="evenodd" clip-rule="evenodd" d="M1702.32 366.714C1715.06 366.975 1726.14 366.335 1737.76 366.453C1749.21 378.315 1760.34 389.731 1771.13 401.349C1760.41 402.386 1749.23 403.364 1737.39 404.157C1725.91 391.569 1714.23 379.664 1702.32 366.714Z" fill="#141414"/>
<path fill-rule="evenodd" clip-rule="evenodd" d="M1743.07 366.031C1754.44 365.896 1764.75 365.854 1775.04 365.458C1785.59 376.385 1795.79 387.185 1806.04 398.204C1796.85 400.11 1786.87 400.59 1776.44 401.366C1765.24 389.436 1754.73 377.911 1743.07 366.031H1743.07Z" fill="#141414"/>
<path fill-rule="evenodd" clip-rule="evenodd" d="M1779.84 365.584C1789.44 365.584 1799.2 366.048 1807.52 365.803C1817.16 375.474 1827.03 385.827 1836.78 395.743C1828.4 396.274 1819.78 397.024 1810.67 398.179C1800.83 387.227 1790.19 376.494 1779.84 365.584Z" fill="#141414"/>
<path fill-rule="evenodd" clip-rule="evenodd" d="M1424.42 316C1445.85 316.245 1466.52 316.574 1485.83 317.088C1499.93 332.247 1513.98 346.825 1527.87 361.858C1508.87 362.541 1488.88 363.561 1468.82 364.488C1453.77 348.182 1438.68 331.649 1424.42 316.009V316Z" fill="#141414"/>
<path fill-rule="evenodd" clip-rule="evenodd" d="M1494.85 317.771C1513.71 317.838 1531.96 318.724 1548.93 319.322C1562.28 333.242 1575.72 347.162 1588.66 360.989C1572.15 360.812 1554.45 361.099 1536.62 361.984C1522.99 346.606 1509.06 332.197 1494.85 317.771Z" fill="#141414"/>
<path fill-rule="evenodd" clip-rule="evenodd" d="M1557.52 319.474C1574.23 319.828 1590.42 320.536 1605.71 321.27C1617.89 333.841 1630.3 346.808 1642.72 360.441C1628.07 360.551 1612.71 360.863 1596.87 361.124C1583.96 347.095 1570.52 332.913 1557.52 319.474H1557.52Z" fill="#141414"/>
<path fill-rule="evenodd" clip-rule="evenodd" d="M1612.73 321.354C1627.94 322.282 1641.07 322.568 1654.94 323.411C1667.26 335.696 1678.44 347.491 1690.28 359.767C1677.06 359.834 1663.61 359.682 1649.21 359.986C1637.57 346.934 1625.14 333.967 1612.73 321.354Z" fill="#141414"/>
<path fill-rule="evenodd" clip-rule="evenodd" d="M1662.06 324.052C1674.69 324.314 1687.06 324.693 1699.37 325.469C1710.78 337.264 1721.69 348.46 1732.27 359.48C1721.24 360.079 1709.37 360.163 1696.45 359.859C1685.03 347.533 1673.59 335.982 1662.06 324.052Z" fill="#141414"/>
<path fill-rule="evenodd" clip-rule="evenodd" d="M1705.42 325.671C1717.47 326.556 1728.05 327.045 1738.22 327.484C1748.98 338.124 1759.99 348.857 1769.85 359.261C1759.79 359.438 1749.27 359.792 1737.74 359.48C1727.15 348.503 1716.42 337.331 1705.42 325.671Z" fill="#141414"/>
<path fill-rule="evenodd" clip-rule="evenodd" d="M1744.55 328.765C1755.26 329.718 1764.73 330.249 1774.39 330.864C1784.24 340.864 1794.53 351.175 1804.05 361.495C1794.96 360.745 1785.4 360.61 1775.42 360.171C1765.52 350.189 1755.68 340.215 1744.55 328.774V328.765Z" fill="#141414"/>
<path fill-rule="evenodd" clip-rule="evenodd" d="M1449.45 269.148C1469.05 270.346 1487.61 271.163 1505.55 272.732C1518.85 286.34 1531.69 299.509 1544.67 313.69C1526.97 312.409 1509.26 312.274 1490.07 311.675C1477.04 297.469 1463.42 283.288 1449.45 269.148H1449.45Z" fill="#141414"/>
<path fill-rule="evenodd" clip-rule="evenodd" d="M1514.53 274.089C1532.09 274.949 1548.23 276.568 1564.51 278.406C1576.89 290.623 1588.87 303.075 1601.14 315.756C1585.33 314.34 1569.93 314.297 1552.83 313.724C1539.94 300.2 1526.99 286.441 1514.53 274.089Z" fill="#141414"/>
<path fill-rule="evenodd" clip-rule="evenodd" d="M1572.03 279.089C1587.49 280.37 1601.82 282.006 1616.34 283.692C1628.09 295.108 1639.43 306.996 1651.25 318.918C1637.26 317.392 1623.52 317.08 1608.16 315.866C1596.63 303.919 1584.39 291.592 1572.03 279.089Z" fill="#141414"/>
<path fill-rule="evenodd" clip-rule="evenodd" d="M1623.4 284.24C1637.08 285.547 1649.96 286.34 1662.74 287.646C1673.78 298.708 1684.5 309.643 1695.45 320.857C1683.15 320.174 1671.01 319.592 1657.39 318.934C1645.75 307.165 1634.96 295.723 1623.4 284.24Z" fill="#141414"/>
<path fill-rule="evenodd" clip-rule="evenodd" d="M1669.1 288.473C1680.64 289.29 1692.14 290.462 1703.97 292.258C1714.35 302.435 1724.75 313.041 1734.85 323.192C1724.1 322.636 1712.95 321.489 1701.48 321.177C1690.31 309.955 1679.56 299.315 1669.1 288.473Z" fill="#141414"/>
<path fill-rule="evenodd" clip-rule="evenodd" d="M1739.31 300.175C1749.46 301.524 1759.19 302.764 1768.12 303.607C1777.3 312.653 1787.09 322.24 1796.53 331.758C1787.55 330.898 1778.31 330.671 1769.08 330.055C1759.71 320.182 1749.58 310.208 1739.31 300.184V300.175Z" fill="#141414"/>
<path fill-rule="evenodd" clip-rule="evenodd" d="M1773.6 304.113C1782.3 304.93 1790.6 305.529 1798.66 306.617C1807.09 315.334 1815.59 323.479 1823.7 331.994C1816.58 331.885 1808.45 331.261 1800.69 331C1792.02 322.324 1782.61 312.873 1773.6 304.113Z" fill="#141414"/>
<path fill-rule="evenodd" clip-rule="evenodd" d="M1470.66 230.559C1488.3 232.793 1505.3 234.943 1522.45 237.135C1534.59 249.259 1546.44 261.012 1558.92 273.339C1542.1 270.995 1526.32 269.975 1508.32 267.892C1496.03 255.127 1483.25 243.104 1470.66 230.559Z" fill="#141414"/>
<path fill-rule="evenodd" clip-rule="evenodd" d="M1530.33 238.021C1546.04 239.859 1561.81 242.245 1576.81 244.26C1587.93 255.524 1599.53 266.897 1611.14 278.558C1596.45 276.812 1582.27 275.59 1566.42 274.174C1553.97 261.653 1542.08 250.01 1530.33 238.012V238.021Z" fill="#141414"/>
<path fill-rule="evenodd" clip-rule="evenodd" d="M1583.98 245.162C1597.93 246.865 1611.61 248.88 1625.63 251.139C1636.31 261.897 1646.52 271.745 1657.68 282.765C1644.91 281.458 1631.88 280.353 1618.16 279.375C1606.77 267.648 1594.98 256.004 1583.98 245.162Z" fill="#141414"/>
<path fill-rule="evenodd" clip-rule="evenodd" d="M1631.73 252.16C1644.12 254.192 1656.49 255.945 1668.24 257.648C1678.45 267.698 1689.13 277.782 1699.27 287.68C1687.62 286.399 1676.14 285.05 1664.05 283.583C1652.86 272.715 1642.27 262.429 1631.73 252.16Z" fill="#141414"/>
<path fill-rule="evenodd" clip-rule="evenodd" d="M1706.11 266.299C1716.76 268.137 1726.62 269.401 1735.89 270.683C1745.46 280.084 1755.11 289.341 1764.19 298.809C1755.08 297.789 1745.75 296.778 1735.41 295.361C1725.78 285.758 1716.19 276.332 1706.11 266.307V266.299Z" fill="#141414"/>
<path fill-rule="evenodd" clip-rule="evenodd" d="M1742.76 273.507C1752.19 274.856 1760.59 276.273 1769.15 277.976C1778.06 286.491 1786.8 294.922 1796.16 303.994C1788.12 302.865 1779.43 302.156 1770.73 301.381C1761.63 292.039 1752.37 282.79 1742.75 273.499L1742.76 273.507Z" fill="#141414"/>
<path fill-rule="evenodd" clip-rule="evenodd" d="M1432.81 185.764C1451.41 188.892 1468.97 191.683 1485.85 194.811C1497.98 205.636 1509.48 216.765 1521.93 228.957C1504.91 226.166 1487.73 224.176 1470.18 221.74C1457.66 209.329 1445.3 197.551 1432.82 185.756L1432.81 185.764Z" fill="#141414"/>
<path fill-rule="evenodd" clip-rule="evenodd" d="M1493.86 195.713C1510.49 198.782 1526.36 201.176 1541.93 204.068C1552.72 214.801 1564.02 225.155 1575.46 236.402C1560.36 234.058 1544.76 232.001 1528.99 229.429C1517.44 218.165 1505.9 207.188 1493.86 195.713Z" fill="#141414"/>
<path fill-rule="evenodd" clip-rule="evenodd" d="M1450.81 155.825C1467.72 159.021 1483.92 162.528 1499.76 165.698C1511.16 176.515 1522.3 186.894 1533.46 197.307C1518.51 194.558 1502.28 191.902 1485.26 188.799C1474.01 178.067 1462.28 166.971 1450.8 155.825H1450.81Z" fill="#141414"/>
<path fill-rule="evenodd" clip-rule="evenodd" d="M1266.92 167.182C1291.24 170.782 1313.89 174.129 1335.43 176.532C1349.76 189.777 1362.89 203.368 1375.58 216.116C1354.68 214.236 1332.41 211.538 1308.8 208.815C1295.37 195.064 1281.4 181.127 1266.93 167.19L1266.92 167.182Z" fill="#141414"/>
<path fill-rule="evenodd" clip-rule="evenodd" d="M1903.89 429.425C1909.95 427.899 1915.56 426.238 1920.95 424.737C1929.19 433.674 1937.06 442.266 1944.55 450.427C1940.19 452.99 1935.39 455.385 1930.15 457.838C1921.62 448.345 1912.73 438.632 1903.89 429.425Z" fill="#141414"/>
<path fill-rule="evenodd" clip-rule="evenodd" d="M1881.41 434.897C1888.36 433.573 1894.68 431.735 1900.76 429.872C1910 439.896 1918.89 449.39 1927.2 458.664C1921.51 460.637 1915.8 462.956 1909.01 464.794C1899.89 454.794 1890.41 444.744 1881.4 434.897H1881.41Z" fill="#141414"/>
<path fill-rule="evenodd" clip-rule="evenodd" d="M1852.71 441.043C1860.83 439.163 1868.72 437.173 1876.55 435.841C1885.77 445.647 1895.43 456.641 1904.75 467.02C1897.7 469.077 1890.82 472.087 1883.71 475.071C1873.58 463.386 1862.89 452.282 1852.71 441.035V441.043Z" fill="#141414"/>
<path fill-rule="evenodd" clip-rule="evenodd" d="M1821.52 446.574C1831.02 445.048 1840.47 443.522 1848.43 441.574C1858.83 452.636 1869.51 463.883 1879.84 475.476C1871.81 478.284 1863.33 480.72 1854.59 483.376C1844.11 471.336 1833.09 459.17 1821.52 446.574Z" fill="#141414"/>
<path fill-rule="evenodd" clip-rule="evenodd" d="M1785.96 453.858C1796.9 452.046 1806.94 450.005 1816.53 447.839C1828.5 460.873 1839.71 473.394 1850.18 485.256C1841.38 487.954 1831.86 491.318 1822.08 494.48C1809.81 480.56 1798.45 467.77 1785.96 453.85V453.858Z" fill="#141414"/>
<path fill-rule="evenodd" clip-rule="evenodd" d="M1745.81 462.905C1758.24 460.629 1769.79 458.057 1781.06 455.604C1793.11 469.347 1805.1 482.575 1817.17 496.25C1806.84 499.859 1795.81 503.375 1784.51 506.916C1771.73 491.976 1758.42 477.002 1745.81 462.905Z" fill="#141414"/>
<path fill-rule="evenodd" clip-rule="evenodd" d="M1695.01 470.805C1709.28 467.753 1722.95 465.468 1735.67 463.479C1748.71 477.424 1761.95 492.684 1774.91 507.582C1762.88 510.659 1749.9 513.973 1736.95 518.559C1722.69 501.764 1709.12 486.167 1695 470.805H1695.01Z" fill="#141414"/>
<path fill-rule="evenodd" clip-rule="evenodd" d="M1642.77 480.72C1658.86 477.356 1674.7 473.554 1688.6 470.611C1702.84 486.656 1717.26 502.473 1730.87 518.871C1717.16 523.365 1702.64 528.272 1686.8 532.285C1672.29 514.976 1657.66 498.181 1642.77 480.729V480.72Z" fill="#141414"/>
<path fill-rule="evenodd" clip-rule="evenodd" d="M1580.68 492.608C1599.31 489.135 1617.79 486.125 1633.75 481.192C1648.77 498.965 1664.13 516.89 1678.39 534.343C1662.55 539.258 1645.91 544.258 1628.29 549.013C1612.18 529.629 1596.76 511.283 1580.68 492.608H1580.68Z" fill="#141414"/>
<path fill-rule="evenodd" clip-rule="evenodd" d="M1510.34 508.56C1532.22 503.712 1552.35 499.378 1571.27 494.775C1587.51 513.914 1603.92 533.036 1619.95 552.975C1600.21 558.835 1582 566.145 1561.11 571.869C1543.85 550.581 1526.78 529.385 1510.34 508.56Z" fill="#141414"/>
<path fill-rule="evenodd" clip-rule="evenodd" d="M1429.03 528.517C1454.63 523.137 1477.31 518.053 1500.19 512.717C1517.26 533.735 1534.29 555.134 1551.35 576.051C1529.99 583.623 1507.37 591.034 1483.63 598.622C1464.85 574.079 1447.01 551.002 1429.03 528.517Z" fill="#141414"/>
<path fill-rule="evenodd" clip-rule="evenodd" d="M582.727 407.015C598.843 393.205 614.62 379.268 629.039 366.545C652.333 380.684 675.525 393.854 698.945 408.786C685.877 423.414 672.935 438.75 657.292 454.44C632.039 438.438 606.803 422.528 582.735 407.015H582.727Z" fill="#141414"/>
<path fill-rule="evenodd" clip-rule="evenodd" d="M1373.28 378.669C1379.69 371.747 1385.95 365.306 1392.47 359.792C1401.54 366.604 1410.99 373.864 1420.33 380.769C1414.53 387.32 1409.06 394.36 1403.17 402.277C1393.13 394.225 1383.11 386.232 1373.27 378.669H1373.28Z" fill="#141414"/>
<path fill-rule="evenodd" clip-rule="evenodd" d="M1627.02 122.943C1629.52 118.863 1631.81 114.613 1633.91 110.356C1642.08 117.598 1650.8 125.439 1659.36 133.078C1658.02 137.976 1656.13 142.453 1654 147.251C1645.05 139.182 1635.94 130.978 1627.03 122.943H1627.02Z" fill="#141414"/>
<path fill-rule="evenodd" clip-rule="evenodd" d="M301.522 830.858C321.666 813.954 340.665 797.758 359.119 783.5C383.147 791.426 406.726 800.81 431.465 809.764C413.524 825.344 395.868 842.181 377.722 860.325C351.917 849.921 325.519 840.546 301.514 830.85L301.522 830.858Z" fill="#141414"/>
<path fill-rule="evenodd" clip-rule="evenodd" d="M1569.52 177.78C1571.5 175.444 1573.06 173.168 1574.62 170.976C1579.93 175.107 1585.26 179.162 1590.42 183.209C1589.23 185.713 1588 188.656 1586.61 191.118C1580.91 186.692 1575.41 182.299 1569.52 177.771V177.78Z" fill="#141414"/>
<path fill-rule="evenodd" clip-rule="evenodd" d="M1386.67 70.9317C1391.46 68.7481 1395.99 66.8173 1400.47 65.0383C1407.24 69.9706 1414 75.0714 1420.92 80.4505C1417.14 82.8871 1413 85.0539 1408.28 87.8531C1401.24 81.9597 1393.95 76.4541 1386.67 70.9401V70.9317Z" fill="#141414"/>
<path fill-rule="evenodd" clip-rule="evenodd" d="M368.941 271.012C387.908 262.648 405.541 255.347 422.297 248.467C443.964 258.095 464.479 267.319 484.109 277.099C468.972 285.201 453.029 293.498 435.191 303.699C412.292 292.258 390.04 280.91 368.941 271.012Z" fill="#141414"/>
<path fill-rule="evenodd" clip-rule="evenodd" d="M1464.24 57.897C1467.13 56.4384 1469.29 54.5245 1471.58 53.0828C1477.09 56.9442 1482.34 61.3032 1487.65 65.5103C1485.71 67.3567 1483.91 69.5404 1481.57 71.2266C1476.29 66.9015 1470.27 62.3233 1464.24 57.897Z" fill="#141414"/>
<path fill-rule="evenodd" clip-rule="evenodd" d="M1584.81 26.044C1586.35 24.8467 1588.02 23.9277 1589.53 22.8232C1593.5 26.1198 1597.85 29.526 1601.67 32.6709C1600.35 33.9524 1599.2 35.2508 1598.02 36.7347C1593.67 33.2189 1589.16 29.6356 1584.81 26.044Z" fill="#141414"/>
<path fill-rule="evenodd" clip-rule="evenodd" d="M1875.95 350.694C1876.59 348.924 1877.45 347.153 1877.89 345.45C1881.06 347.777 1884.02 350.433 1887.2 352.861C1886.95 354.918 1886.51 356.866 1886.07 358.814C1882.49 356.09 1879.31 353.392 1875.95 350.694Z" fill="#141414"/>
<path fill-rule="evenodd" clip-rule="evenodd" d="M286.954 545.472C300.457 538.55 311.385 532.015 322.914 525.76C339.844 530.894 356.055 535.54 372.211 540.565C362.301 546.981 351.08 554.459 339.204 561.541C321.509 556.381 304.176 550.766 286.954 545.472Z" fill="#141414"/>
<path fill-rule="evenodd" clip-rule="evenodd" d="M1280.62 37.443C1285.36 35.9422 1290.2 34.9136 1294.3 33.3792C1300.89 37.991 1307.86 42.7799 1314.1 47.2231C1310.12 49.0948 1306.4 50.6883 1302.01 52.442C1295.45 47.611 1287.78 42.2825 1280.62 37.443Z" fill="#141414"/>
<path fill-rule="evenodd" clip-rule="evenodd" d="M1530.12 63.0991C1532.85 62.1716 1535.54 61.514 1538.06 60.6877C1542.3 63.959 1547.1 67.5507 1551.55 70.7883C1549.02 71.7494 1546.68 72.6431 1544.13 73.6212C1539.33 70.0463 1534.9 66.6823 1530.11 63.0991H1530.12Z" fill="#141414"/>
<path fill-rule="evenodd" clip-rule="evenodd" d="M1594.5 138.322C1597.23 137.361 1599.79 136.256 1602.3 135.548C1606.29 138.457 1610.68 141.576 1614.9 144.477C1612.36 145.438 1609.83 146.45 1607.47 147.596C1603.28 144.536 1598.88 141.458 1594.5 138.322Z" fill="#141414"/>
<path fill-rule="evenodd" clip-rule="evenodd" d="M1169.43 178.556C1175.37 176.895 1181.05 175.2 1186.51 173.632C1193.71 177.788 1200.71 181.743 1208.3 186.093C1202.69 187.467 1197.17 189.348 1191.67 191.093C1184.52 186.81 1176.68 182.56 1169.43 178.556Z" fill="#141414"/>
<path fill-rule="evenodd" clip-rule="evenodd" d="M1660.65 204.161C1663.19 203.208 1665.74 201.952 1668.07 200.949C1672 203.756 1675.54 206.328 1679.28 209.068C1677.15 210.13 1675 211.327 1672.65 212.609C1668.71 209.692 1664.76 207.146 1660.65 204.153V204.161Z" fill="#141414"/>
<path fill-rule="evenodd" clip-rule="evenodd" d="M1628.48 92.5575C1630.7 91.9421 1632.87 91.706 1635.07 91.2676C1638.3 93.6283 1641.69 96.2673 1644.95 98.4847C1643.13 98.9062 1640.92 99.5133 1639.07 100.188C1635.49 97.5319 1632.08 94.9689 1628.48 92.566V92.5575Z" fill="#141414"/>
<path fill-rule="evenodd" clip-rule="evenodd" d="M-7.62939e-05 700.816C18.0194 694.999 37.0732 688.093 56.3324 682.099C74.1703 686.196 93.4375 689.114 111.552 692.697C94.235 698.379 75.4811 705.04 58.1565 711.642C37.9181 707.991 19.196 704.627 -7.62939e-05 700.824V700.816Z" fill="#141414"/>
<path fill-rule="evenodd" clip-rule="evenodd" d="M889.943 325.317C898.913 322.973 908.523 321.573 917.675 319.449C926.692 322.813 934.897 325.755 942.959 329.212C934.652 330.848 925.658 333.149 916.269 335.451C907.497 331.977 898.487 328.639 889.951 325.317H889.943Z" fill="#141414"/>
<path fill-rule="evenodd" clip-rule="evenodd" d="M920.565 499.994C928.659 494.573 936.666 489.177 944.72 484.48C955.996 489.126 967.493 494.589 979.069 499.859C971.576 505.213 964.129 510.432 956.604 516.519C944.057 510.415 932.173 505.297 920.565 499.985V499.994Z" fill="#141414"/>
<path fill-rule="evenodd" clip-rule="evenodd" d="M1116.54 284.291C1123.84 279.822 1130.57 275.834 1136.81 271.948C1146.42 277.655 1156.42 283.717 1166.42 289.889C1160.13 294.029 1154.52 299.003 1147.51 303.278C1136.89 296.879 1126.74 290.513 1116.54 284.291Z" fill="#141414"/>
</g>
<defs>
<clipPath id="clip0_499_4378">
<rect width="2054" height="1200" fill="white" transform="matrix(-1 0 0 1 2054 -130)"/>
</clipPath>
</defs>
</svg>
